<svg version="1.1" id="Layer_1" xmlns="http://www.w3.org/2000/svg" xmlns:xlink="http://www.w3.org/1999/xlink" x="0px" y="0px"
	 width="100%" viewBox="0 0 496 496" enable-background="new 0 0 496 496" xml:space="preserve">
<path fill="#000000" opacity="1.000000" stroke="none" 
	d="
M317.226898,232.992126 
	C316.390350,244.122452 313.796692,254.068481 305.978027,262.039856 
	C299.799377,268.339203 292.377563,271.368622 283.605957,271.345825 
	C272.282135,271.316376 260.956451,271.234833 249.635223,271.410614 
	C245.997528,271.467072 243.895599,270.406403 242.473083,266.828552 
	C239.837555,260.199799 236.636841,253.795792 233.199524,246.263947 
	C232.400009,249.049133 231.927017,250.822144 231.382767,252.573013 
	C227.257751,265.842957 215.689514,273.216675 202.173065,271.207001 
	C189.592972,269.336548 182.819366,258.010345 186.180588,244.514069 
	C188.148819,236.611053 192.327972,229.790024 196.780167,223.147110 
	C202.271515,214.953720 207.604279,206.710815 209.443268,196.801086 
	C209.917465,194.245804 211.400955,193.604691 213.671005,193.686050 
	C216.894119,193.801590 220.197235,192.919205 222.017853,197.181122 
	C227.117554,209.119064 232.575333,220.903839 237.874359,232.756882 
	C242.493378,243.088898 247.068466,253.440628 251.719650,263.758087 
	C252.306656,265.060242 252.672195,266.577423 254.139252,267.505402 
	C255.292847,265.800446 254.743301,263.937012 254.747894,262.209625 
	C254.803329,241.390991 254.923065,220.570816 254.705139,199.754410 
	C254.654129,194.881973 256.293030,193.357178 261.029083,193.580948 
	C268.008423,193.910721 275.022614,193.875092 282.008453,193.622055 
	C299.220428,192.998581 312.666718,204.650635 316.213348,223.624207 
	C316.761383,226.556122 316.899200,229.564697 317.226898,232.992126 
M264.334961,262.251495 
	C264.727264,264.511505 263.147217,268.172913 266.685242,268.465454 
	C275.283142,269.176300 284.008148,269.827911 291.853302,264.741211 
	C302.500549,257.837708 306.752441,247.234207 307.312164,235.425888 
	C307.945709,222.060364 304.877441,209.589905 293.078918,201.009903 
	C286.260284,196.051346 278.466797,196.262802 270.598999,196.126358 
	C265.941467,196.045563 264.173279,197.415863 264.235077,202.354279 
	C264.480957,222.003540 264.335266,241.657684 264.334961,262.251495 
M229.270035,237.258347 
	C223.680557,224.889343 218.091095,212.520325 211.931595,198.889877 
	C208.336075,211.869186 201.573929,221.842560 196.402847,232.588104 
	C195.185608,235.117569 194.207306,237.834244 193.599060,240.571442 
	C191.478027,250.116394 194.936844,259.092072 202.137604,261.967163 
	C209.411285,264.871338 216.395996,263.500458 222.053589,258.193420 
	C227.767014,252.834045 232.244110,246.635147 229.270035,237.258347 
z"/>
<path fill="#000000" opacity="1.000000" stroke="none" 
	d="
M113.581436,255.270966 
	C106.531609,234.818420 99.611252,214.737320 92.674484,194.608582 
	C101.231598,192.447678 102.246048,192.948242 104.705391,200.050995 
	C111.511940,219.708786 118.313377,239.368347 125.134819,259.020966 
	C125.782257,260.886200 126.556244,262.707550 128.468704,264.716400 
	C131.030777,255.757690 133.828979,246.855042 135.978516,237.798416 
	C136.476898,235.698547 134.858444,233.040100 134.048950,230.695663 
	C130.463882,220.312698 126.804703,209.955338 123.210510,199.575485 
	C122.676682,198.033829 122.346741,196.421555 121.931190,194.874390 
	C129.141846,192.120407 131.285660,193.073624 133.586288,199.774857 
	C135.687973,205.896591 137.818695,212.008347 140.252228,219.035950 
	C142.926895,212.345291 143.767838,206.192764 145.005066,200.143097 
	C146.441467,193.119461 147.562057,192.489517 154.829620,194.558197 
	C155.451859,196.834457 154.176208,198.733810 153.507385,200.745300 
	C151.721832,206.115417 150.440826,211.738953 147.970215,216.776688 
	C143.648666,225.588562 144.395828,233.838608 148.184357,242.571198 
	C151.348404,249.864288 153.543732,257.577637 156.514572,266.098785 
	C160.850006,254.353394 163.892441,243.226028 166.689011,232.049072 
	C169.310425,221.572189 171.531509,210.993240 173.819046,200.435425 
	C175.392075,193.175339 175.825134,192.827408 183.548706,194.283356 
	C184.716385,195.939026 183.622330,197.499496 183.120499,198.963913 
	C175.458008,221.324722 167.685013,243.647720 160.058090,266.020569 
	C158.859848,269.535522 157.376083,271.525696 153.099625,271.499695 
	C148.860138,271.473907 147.359650,269.652771 146.226440,266.007660 
	C144.109009,259.196594 141.524200,252.530807 138.676422,244.517334 
	C135.722794,252.761917 132.993469,259.777832 130.734512,266.942078 
	C129.618027,270.483063 127.684212,271.479645 124.178337,271.454132 
	C120.726410,271.428955 118.546440,270.608948 117.577721,266.981232 
	C116.549835,263.131927 115.020973,259.416382 113.581436,255.270966 
z"/>
<path fill="#000000" opacity="1.000000" stroke="none" 
	d="
M453.972565,270.970001 
	C450.562378,263.288605 447.152161,255.607178 443.606201,247.619949 
	C441.604065,249.523407 441.603058,251.442871 441.045074,253.121918 
	C436.241028,267.578125 421.296814,275.147186 407.568207,270.065155 
	C398.919281,266.863525 393.844696,257.655334 395.114624,248.482132 
	C396.615875,237.638443 402.581329,229.030670 408.413483,220.316635 
	C413.162781,213.220520 417.425568,205.939209 418.992004,197.372192 
	C419.360260,195.358124 420.153473,193.471939 422.841858,193.707382 
	C426.117096,193.994202 429.835419,192.425293 431.807068,196.976486 
	C436.902039,208.737473 442.275696,220.377579 447.513916,232.076782 
	C452.548065,243.320236 457.559418,254.573944 462.560181,265.832336 
	C463.219025,267.315613 464.294067,268.727020 463.644073,270.685547 
	C460.845093,271.946716 457.854431,271.244568 454.457153,271.103607 
	C453.998444,270.998383 453.972565,270.970001 453.972565,270.970001 
M429.722382,216.689819 
	C427.233337,211.185715 424.744263,205.681610 421.717377,198.988190 
	C418.838226,208.560486 415.040863,216.126144 410.898132,223.532852 
	C408.216156,228.327881 405.582062,233.132919 403.981934,238.446716 
	C402.337494,243.907486 402.243988,249.306549 404.685303,254.482635 
	C408.639191,262.865662 417.667236,265.673004 426.780548,261.569122 
	C436.450317,257.214661 442.278351,245.466568 438.756500,236.999161 
	C436.008484,230.392273 432.941376,223.918121 429.722382,216.689819 
z"/>
<path fill="#000000" opacity="1.000000" stroke="none" 
	d="
M371.681702,242.291412 
	C370.045624,238.598022 368.619843,235.222366 366.024048,232.512955 
	C362.824188,229.173035 359.263458,228.325027 355.318390,231.041351 
	C348.187347,235.951370 341.570526,241.008591 343.272888,251.420624 
	C344.042175,256.125732 343.281250,261.063019 343.510376,265.880920 
	C343.657532,268.975525 343.962433,271.405701 339.535217,271.474121 
	C335.285095,271.539764 333.606781,270.299438 333.698151,265.813141 
	C333.945587,253.664398 333.784821,241.507309 333.780670,229.353516 
	C333.777222,219.197632 333.885468,209.039536 333.697357,198.886993 
	C333.626495,195.064056 334.830170,193.576569 338.824982,193.573593 
	C342.852295,193.570602 343.447968,195.462219 343.406158,198.812103 
	C343.287750,208.300247 343.394684,217.791199 343.411926,227.281036 
	C343.416473,229.772491 343.431366,232.261871 344.584320,234.918396 
	C347.409912,233.963776 349.277710,231.773438 351.150574,229.837189 
	C361.216949,219.430069 371.853546,209.541351 381.068237,198.355865 
	C384.642670,194.016922 388.534332,192.747345 394.765900,194.399872 
	C383.766907,204.494431 373.234650,214.160660 362.731720,223.799927 
	C363.423553,224.616943 363.625183,225.068771 363.835571,225.072891 
	C374.962921,225.290924 378.928131,233.242706 382.142700,241.995728 
	C385.627472,251.484619 388.248901,261.314117 393.537292,270.077301 
	C386.913300,273.029541 382.661560,271.723755 380.209930,265.603485 
	C377.181580,258.043640 374.581543,250.312164 371.681702,242.291412 
z"/>
<path fill="#000000" opacity="1.000000" stroke="none" 
	d="
M31.928860,247.627716 
	C33.647629,246.641388 35.081219,246.494431 36.852169,247.187576 
	C36.979103,247.821045 37.373848,248.634003 37.253117,249.361374 
	C35.317257,261.024841 43.827522,266.665344 52.154469,268.225128 
	C60.268372,269.744965 68.130501,268.543396 75.079018,263.746643 
	C83.903130,257.655060 84.065674,247.851578 75.524422,241.290482 
	C69.307381,236.514786 61.660999,235.932678 54.381908,234.408020 
	C49.481369,233.381577 44.590893,232.405807 40.075500,230.190094 
	C33.303665,226.867126 28.878256,221.694000 28.777636,213.873260 
	C28.676800,206.035797 32.810825,200.467987 39.774815,197.467041 
	C52.258091,192.087631 65.014923,191.803024 77.563087,197.307465 
	C82.206551,199.344376 86.041573,202.625366 87.631546,207.812164 
	C89.451546,213.749390 85.877350,218.237518 79.523003,218.008606 
	C78.657845,217.245056 78.676788,216.197952 78.815895,215.231995 
	C80.474060,203.717819 72.106041,197.930984 62.563168,196.478195 
	C55.821983,195.451935 49.312401,196.618469 43.229454,199.921417 
	C38.428669,202.528198 35.393040,206.431778 35.683960,211.898010 
	C35.962078,217.123718 39.799801,220.061401 44.325771,221.954086 
	C50.838127,224.677475 57.872810,225.242966 64.700508,226.655075 
	C70.603447,227.875946 76.376450,229.378525 81.245804,233.208267 
	C92.446274,242.017365 91.758667,259.362915 79.306488,266.101898 
	C65.441345,273.605591 50.936947,273.672211 36.616203,266.759216 
	C34.043598,265.517365 31.935484,263.562073 30.304918,261.188477 
	C26.901552,256.234283 27.298492,252.352417 31.928860,247.627716 
z"/>
<path fill="#000000" opacity="1.000000" stroke="none" 
	d="
M330.321350,243.000107 
	C330.313354,251.321793 330.186646,259.145935 330.348999,266.964081 
	C330.425171,270.631836 328.679443,271.415558 325.458923,271.416199 
	C322.164581,271.416840 320.641876,270.419739 320.656616,266.852753 
	C320.751617,243.887436 320.753357,220.921265 320.647217,197.956024 
	C320.629974,194.230362 322.429199,193.599564 325.587433,193.568405 
	C328.875610,193.535965 330.406677,194.451706 330.373138,198.066742 
	C330.235718,212.876755 330.319031,227.688797 330.321350,243.000107 
z"/>
<path fill="#000000" opacity="1.000000" stroke="none" 
	d="
M397.289368,302.148254 
	C395.370026,304.533173 393.569611,303.166565 391.830902,302.426025 
	C390.957947,303.803101 392.399628,305.598297 390.366791,306.881073 
	C387.536102,307.459747 388.081787,304.115906 386.690430,302.839111 
	C383.784302,304.509430 381.248413,306.450592 381.843231,310.510010 
	C378.769531,309.020020 373.998718,300.056274 375.018738,297.527710 
	C376.823334,293.054260 379.355377,297.264038 381.602844,297.277588 
	C384.195221,295.944458 382.311768,290.809784 386.107513,291.073486 
	C389.708496,291.323608 388.756042,295.521729 390.333221,298.116364 
	C391.042053,296.460144 390.180786,294.708069 391.227783,293.462585 
	C393.381500,292.458282 392.906738,294.939514 393.908173,295.451843 
	C394.095612,295.229919 394.436981,295.008087 394.421082,294.815826 
	C394.289459,293.223572 393.118927,290.675171 394.869446,290.333252 
	C397.481476,289.822998 400.052155,288.284180 402.843414,289.055573 
	C403.330780,289.190216 404.067871,290.283936 403.948944,290.475952 
	C401.299652,294.753204 409.365021,296.378632 406.432129,300.717865 
	C405.301361,302.390839 403.949463,303.718323 401.949829,302.920868 
	C400.095673,302.181488 398.851044,300.707397 401.031250,298.844696 
	C401.730103,298.247650 401.763031,297.822296 401.080048,297.326569 
	C400.432922,296.856812 399.732849,296.460022 398.926788,295.949219 
	C398.032074,298.033783 398.975281,300.265533 397.289368,302.148254 
z"/>
<path fill="#000000" opacity="1.000000" stroke="none" 
	d="
M379.751648,315.030090 
	C381.922943,310.711823 386.626770,310.474426 390.413177,309.093262 
	C406.684387,303.158173 423.595337,299.769012 440.778656,297.746063 
	C443.378052,297.440033 446.011841,297.420776 448.211212,299.660309 
	C446.868622,302.559387 444.092316,302.027161 442.139740,302.161926 
	C424.131866,303.405121 406.887421,308.125275 389.701782,313.202667 
	C386.544769,314.135406 383.433716,315.410095 379.751648,315.030090 
z"/>
<path fill="#000000" opacity="1.000000" stroke="none" 
	d="
M426.376495,287.740356 
	C426.184113,290.555664 426.818970,293.069794 425.568848,295.755432 
	C421.194397,292.710175 424.972351,285.496521 418.688934,283.863068 
	C421.472717,280.159973 425.401031,278.810303 428.864380,278.430725 
	C432.628632,278.018127 434.831848,282.463593 435.715912,285.210510 
	C436.571014,287.867523 436.118347,291.358032 437.445892,294.361572 
	C429.224884,295.354218 428.884766,295.009827 427.150757,284.735992 
	C425.927124,285.336426 426.582825,286.476990 426.376495,287.740356 
z"/>
<path fill="#000000" opacity="1.000000" stroke="none" 
	d="
M441.467529,283.285828 
	C442.934753,282.888306 443.226288,280.509186 445.186127,281.368317 
	C446.986694,282.157562 446.430145,283.955322 446.379120,285.354187 
	C446.247345,288.970337 447.659058,292.976227 443.953369,296.205170 
	C441.997925,294.259277 440.684448,292.047729 438.545563,290.483429 
	C436.303528,288.843658 437.018158,285.850433 437.927246,283.524506 
	C438.524139,281.997253 439.906586,281.112213 441.467529,283.285828 
z"/>
<path fill="#000000" opacity="1.000000" stroke="none" 
	d="
M411.564270,284.191040 
	C413.428284,283.728424 415.017517,283.416077 415.752441,285.212067 
	C416.329803,286.622955 415.093903,287.321259 414.121338,287.863373 
	C411.912018,289.094879 412.356812,291.163391 412.254486,293.101990 
	C412.161438,294.865509 412.734344,296.730103 411.220001,298.821259 
	C407.290619,296.518250 410.258820,289.871307 404.781830,289.074188 
	C406.063293,285.766296 408.987915,285.557648 411.564270,284.191040 
z"/>
<path fill="#000000" opacity="1.000000" stroke="none" 
	d="
M454.011292,271.012543 
	C453.798370,273.714447 451.982941,275.448669 450.351227,277.337921 
	C448.491943,279.490601 445.985962,280.680939 443.856598,278.859344 
	C441.889893,277.176880 441.689850,274.336761 443.369537,271.996429 
	C445.649933,271.868927 445.627441,274.017914 446.888550,274.851624 
	C449.253418,273.907043 449.838562,270.073334 453.598206,270.932739 
	C453.972565,270.970001 453.998444,270.998383 454.011292,271.012543 
z"/>
<path fill="#000000" opacity="1.000000" stroke="none" 
	d="
M365.186340,293.557709 
	C367.747467,289.825256 370.116455,292.664825 372.381348,293.685944 
	C374.680511,294.722534 374.130066,297.334930 373.675995,298.930817 
	C373.105835,300.934875 371.069244,301.711090 368.465424,300.541229 
	C370.588379,296.824493 367.484467,295.614746 365.186340,293.557709 
z"/>
<path fill="#000000" opacity="1.000000" stroke="none" 
	d="
M201.331360,255.662994 
	C196.880951,249.667603 196.442398,242.398788 200.003830,237.922791 
	C203.695297,233.283356 210.763931,231.237228 216.182114,233.450882 
	C224.373367,236.797501 226.131134,242.464233 223.389404,251.943085 
	C221.445572,258.663391 212.223969,261.552856 205.361725,258.330170 
	C204.028595,257.704102 202.853149,256.742279 201.331360,255.662994 
z"/>
</svg>